{"title":"Kill Your Darlings - 2013 (No Cinavia) 1080p AAC/AC3","uid":11113682,"size":3654144556,"categoryP":"video","categoryS":"hd___movies","magnet":"?xt=urn:btih:e4ce22063cfb8a1fce67bb78956ad017bcc387b9&amp;dn=Kill+Your+Darlings+-+2013+%28No+Cinavia%29+1080p+AAC%2FAC3&amp;tr=udp%3A%2F%2Ftracker.openbittorrent.com%3A80&amp;tr=udp%3A%2F%2Fopen.demonii.com%3A1337&amp;tr=udp%3A%2F%2Ftracker.coppersurfer.tk%3A6969&amp;tr=udp%3A%2F%2Fexodus.desync.com%3A6969","seeders":0,"leechers":0,"uploader":"AlienMethod","files":-1,"time":1411837929,"description":"Double-Encode/x264 MP4\nCinavia Removed/CinExHD\n2-Channel AAC (audio 1)\nDS 5.1 AC3 (audio 2)\n\n&quot;A murder in 1944 draws together the great poets of the beat generation: Allen Ginsberg, Jack Kerouac and William Burroughs.&quot;\n\nVideo\nID : 1\nFormat : AVC\nFormat/Info : Advanced Video Codec\nFormat profile : &lt;a class=&quot;__cf_email__&quot; href=&quot;/cdn-cgi/l/email-protection&quot; data-cfemail=&quot;a6eecfc1cee6ea928896&quot;&gt;[email&amp;#160;protected]&lt;/a&gt;&lt;script data-cfhash='f9e31' type=&quot;text/javascript&quot;&gt;\n/* &lt;![CDATA[ */!function(){try{var t=&quot;currentScript&quot;in document?document.currentScript:function(){for(var t=document.getElementsByTagName(&quot;script&quot;),e=t.length;e--;)if(t[e].getAttribute(&quot;data-cfhash&quot;))return t[e]}();if(t&amp;&amp;t.previousSibling){var e,r,n,i,c=t.previousSibling,a=c.getAttribute(&quot;data-cfemail&quot;);if(a){for(e=&quot;&quot;,r=parseInt(a.substr(0,2),16),n=2;a.length-n;n+=2)i=parseInt(a.substr(n,2),16)^r,e+=String.fromCharCode(i);e=document.createTextNode(e),c.parentNode.replaceChild(e,c)}t.parentNode.removeChild(t);}}catch(u){}}()/* ]]&gt; */&lt;/script&gt;\nFormat settings, CABAC : Yes\nFormat settings, ReFrames : 5 frames\nCodec ID : avc1\nCodec ID/Info : Advanced Video Coding\nDuration : 1h 42mn\nBit rate : 4 081 Kbps\nMaximum bit rate : 29.8 Mbps\nWidth : 1 920 pixels\nHeight : 800 pixels\nDisplay aspect ratio : 2.40:1\nFrame rate mode : Constant\nFrame rate : 23.976 fps\nColor space : YUV\nChroma subsampling : 4:2:0\nBit depth : 8 bits\nScan type : Progressive\nBits/(Pixel*Frame) : 0.111\nStream size : 2.93 GiB (86%)\nTitle : Kill Your Darlings.mp4\nWriting library : x264 core 142 r2479 dd79a61\nEncoded date : UTC 2014-09-27 03:19:33\nTagged date : UTC 2014-09-27 04:26:36\n\nAudio #1\nID : 2\nFormat : AAC\nFormat/Info : Advanced Audio Codec\nFormat profile : LC\nCodec ID : 40\nDuration : 1h 42mn\nBit rate mode : Variable\nBit rate : 210 Kbps\nMaximum bit rate : 255 Kbps\nChannel(s) : 2 channels\nChannel positions : Front: L R\nSampling rate : 48.0 KHz\nCompression mode : Lossy\nStream size : 155 MiB (4%)\nTitle : Kill Your DarlingsCinExAudioAAC.m4a\nEncoded date : UTC 2014-09-27 04:26:33\nTagged date : UTC 2014-09-27 04:26:36\n\nAudio #2\nID : 3\nFormat : AC-3\nFormat/Info : Audio Coding 3\nMode extension : CM (complete main)\nFormat settings, Endianness : Big\nCodec ID : ac-3\nDuration : 1h 42mn\nBit rate mode : Constant\nBit rate : 448 Kbps\nChannel(s) : 6 channels\nChannel positions : Front: L C R, Side: L R, LFE\nSampling rate : 48.0 KHz\nBit depth : 16 bits\nCompression mode : Lossy\nStream size : 329 MiB (9%)\nTitle : Kill Your DarlingsCinExAudioAC3.ac3\nEncoded date : UTC 2014-09-27 04:26:34\nTagged date : UTC 2014-09-27 04:26:36\n\nm/ AM m/","torrent":{"xt":"urn:btih:e4ce22063cfb8a1fce67bb78956ad017bcc387b9","amp;dn":"Kill+Your+Darlings+-+2013+%28No+Cinavia%29+1080p+AAC%2FAC3","amp;tr":["udp%3A%2F%2Ftracker.openbittorrent.com%3A80","udp%3A%2F%2Fopen.demonii.com%3A1337","udp%3A%2F%2Ftracker.coppersurfer.tk%3A6969","udp%3A%2F%2Fexodus.desync.com%3A6969"],"infoHash":"e4ce22063cfb8a1fce67bb78956ad017bcc387b9","infoHashBuffer":{"type":"Buffer","data":[228,206,34,6,60,251,138,31,206,103,187,120,149,106,208,23,188,195,135,185]},"announce":[],"urlList":[]}}